<svg width="14" height="14" fill="none" xmlns="http://www.w3.org/2000/svg"><path d="M6.758 1.217c1.806 0 2.02.008 2.73.04.66.029 1.017.14 1.254.232.314.121.541.27.776.504.238.238.383.462.505.776.092.238.203.597.232 1.254.031.713.04.927.04 2.73 0 1.806-.008 2.02-.04 2.73-.03.66-.14 1.016-.232 1.254a2.09 2.09 0 01-.505.776 2.078 2.078 0 01-.776.504c-.238.093-.597.204-1.254.232-.713.032-.927.04-2.73.04-1.805 0-2.02-.008-2.73-.04-.66-.029-1.016-.14-1.253-.232a2.09 2.09 0 01-.777-.504 2.079 2.079 0 01-.504-.776c-.092-.238-.203-.597-.232-1.254-.032-.713-.04-.927-.04-2.73 0-1.806.008-2.02.04-2.73.029-.66.14-1.016.232-1.254a2.09 2.09 0 01.504-.776c.238-.237.462-.383.777-.504.237-.092.596-.203 1.254-.232.71-.032.924-.04 2.73-.04zm0-1.217C4.924 0 4.694.008 3.973.04c-.718.031-1.212.147-1.64.314a3.299 3.299 0 00-1.198.781 3.312 3.312 0 00-.781 1.196c-.167.43-.283.921-.314 1.64-.032.723-.04.953-.04 2.787 0 1.835.008 2.065.04 2.786.031.718.147 1.211.314 1.639a3.3 3.3 0 00.781 1.199c.375.374.753.607 1.196.778.43.167.921.283 1.64.315.72.031.95.04 2.785.04 1.835 0 2.064-.009 2.785-.04.718-.032 1.212-.148 1.64-.315a3.303 3.303 0 001.195-.778c.375-.375.607-.753.779-1.196.166-.43.283-.922.314-1.64.032-.72.04-.95.04-2.785 0-1.835-.008-2.064-.04-2.785-.031-.718-.148-1.212-.314-1.64a3.166 3.166 0 00-.773-1.2 3.304 3.304 0 00-1.196-.78c-.43-.166-.922-.282-1.64-.314C8.823.008 8.593 0 6.758 0z" fill="#fff"/><path d="M6.759 3.287a3.472 3.472 0 10.001 6.945 3.472 3.472 0 00-.001-6.945zm0 5.724a2.252 2.252 0 110-4.505 2.252 2.252 0 010 4.505zM11.178 3.15a.81.81 0 11-1.622-.001.81.81 0 011.622 0z" fill="#fff"/></svg>