<svg width="13" height="13" fill="none" xmlns="http://www.w3.org/2000/svg"><path d="M10.625 6.192h-8.25C1.062 6.192 0 7.279 0 8.62v1.952C0 11.912 1.062 13 2.374 13h8.25C11.935 13 13 11.913 13 10.572V8.62c0-1.341-1.063-2.428-2.375-2.428zM4.108 7.711H3.34v3.897h-.74V7.71h-.767v-.664H4.11v.664h-.001zm2.168 3.897h-.658v-.37c-.12.137-.248.24-.38.31a.782.782 0 01-.382.108c-.153 0-.266-.048-.345-.151-.075-.102-.113-.25-.113-.45V8.242h.657v2.58c0 .08.014.137.04.172.029.038.075.053.136.053.047 0 .109-.023.183-.07a.917.917 0 00.204-.18V8.242h.658v3.365zm2.384-.695c0 .236-.05.418-.155.547-.102.128-.252.19-.447.19a.76.76 0 01-.625-.3v.258H6.77v-4.56h.664v1.468c.088-.101.184-.18.282-.234a.655.655 0 01.305-.08c.21 0 .367.07.476.214.11.144.164.353.164.628v1.869zm2.282-.907H9.683v.634c0 .176.023.3.066.37.043.067.118.102.222.102.11 0 .186-.03.229-.088.042-.059.065-.186.065-.384v-.153h.678v.173c0 .344-.083.604-.248.78-.164.173-.41.259-.739.259-.294 0-.526-.091-.695-.278-.168-.183-.254-.438-.254-.763v-1.51c0-.29.093-.528.28-.712a.98.98 0 01.72-.277c.295 0 .533.085.694.256.162.17.244.414.244.733v.858h-.003zM9.978 8.75c-.105 0-.18.03-.225.093-.045.06-.068.16-.068.301v.34h.58v-.34c0-.141-.024-.243-.069-.301-.044-.063-.12-.093-.218-.093zm-2.27-.013a.307.307 0 00-.14.034.52.52 0 00-.137.104v2.096a.63.63 0 00.156.12c.05.026.103.038.159.038.08 0 .14-.024.178-.073.037-.047.056-.124.056-.231V9.086c0-.114-.022-.2-.069-.26-.045-.058-.113-.087-.203-.087v-.003zM3.455 5.024h.833V2.94L5.258 0H4.41l-.517 2.008h-.052L3.3 0h-.84l.992 3.033v1.99h.002zm2.933.092c.337 0 .601-.09.795-.269.192-.181.286-.43.286-.745V2.188a.9.9 0 00-.29-.693c-.197-.179-.448-.268-.755-.268-.337 0-.605.084-.804.256-.199.17-.298.396-.298.686v1.92c0 .316.097.565.29.752.195.186.453.278.776.278v-.003zm-.307-2.98a.25.25 0 01.084-.196.33.33 0 01.221-.074c.1 0 .178.024.238.074.06.05.091.115.091.196v2.017c0 .1-.03.178-.09.235a.324.324 0 01-.239.085c-.101 0-.172-.027-.224-.084a.33.33 0 01-.08-.236V2.136H6.08zm2.504 2.942a.913.913 0 00.43-.12 1.57 1.57 0 00.426-.346v.41h.74V1.317h-.74v2.814a.996.996 0 01-.228.198.43.43 0 01-.206.077c-.069 0-.12-.02-.15-.06-.031-.039-.05-.102-.05-.19V1.317h-.739v3.097c0 .22.043.386.13.495.088.11.215.169.387.169z" fill="#fff"/></svg>